# xmcd
#
# Track frame offsets:
#	183
#	15835
#	30620
#	48433
#	64580
#	80040
#	94703
#	105650
#	117563
#	135690
#	153368
#	172083
#	193725
#	209543
#
# Disc length: 2991 seconds
#
# Revision: 1
# Processed by: cddbd v1.4PL0 Copyright (c) Steve Scherf et al.
# Submitted via: audiograbber 1.81.01
#
DISCID=bd0bad0e
DTITLE=Hideaway - Come Inside
DYEAR=1992
DGENRE=Blues
TTITLE0=Come Inside
TTITLE1=When The Blues Lets You Down
TTITLE2=I Gotta Know
TTITLE3=If You Want This Love Of Mine
TTITLE4=Choo Train
TTITLE5=Mr. Booz
TTITLE6=M' Nettin'
TTITLE7=If You Wanna Go
TTITLE8=Crucial Mistake
TTITLE9=Can't Take No More
TTITLE10=Way From Home
TTITLE11=American Dream
TTITLE12=Hopin'
TTITLE13=Funky Mama
EXTD=
EXTT0=
EXTT1=
EXTT2=
EXTT3=
EXTT4=
EXTT5=
EXTT6=
EXTT7=
EXTT8=
EXTT9=
EXTT10=
EXTT11=
EXTT12=
EXTT13=
PLAYORDER=
